<svg width="114" height="113" viewBox="0 0 114 113" fill="none" xmlns="http://www.w3.org/2000/svg">
<g style="mix-blend-mode:overlay">
<path d="M102.935 0H10.2341C4.67812 0 0.157959 4.06875 0.157959 9.06853V16.1178V16.1218V16.1259V66.5025C0.157959 68.7314 0.172066 70.7587 0.196248 72.2278C0.214385 73.318 0.232523 74.2108 0.363513 74.904C0.232523 76.1172 0.157959 77.3465 0.157959 78.5939C0.157959 97.4846 15.5261 112.853 34.4168 112.853C53.3076 112.853 68.6757 97.4846 68.6757 78.5939C68.6757 77.9148 68.6133 77.2497 68.5729 76.5787H102.935C108.491 76.5787 113.011 72.0585 113.011 66.5025V9.06853C113.011 4.06875 108.491 0 102.935 0ZM108.98 40.3046H68.6757C67.5653 40.3046 66.6605 39.3997 66.6605 38.2893V30.2284C66.6605 29.118 67.5653 28.2132 68.6757 28.2132H108.98V40.3046ZM10.2341 4.03046H102.935C106.268 4.03046 108.98 6.29154 108.98 9.06853V14.1066H4.18842V9.06853C4.18842 6.29154 6.90091 4.03046 10.2341 4.03046ZM34.4168 108.822C17.7489 108.822 4.18842 95.2619 4.18842 78.5939C4.18842 61.9259 17.7489 48.3655 34.4168 48.3655C51.0848 48.3655 64.6453 61.9259 64.6453 78.5939C64.6453 95.2619 51.0848 108.822 34.4168 108.822ZM102.935 72.5482H68.1074C65.2398 56.5352 51.242 44.335 34.4168 44.335C21.34 44.335 9.96003 51.7047 4.18842 62.5043V18.1371H108.98V24.1827H68.6757C65.3425 24.1827 62.63 26.8952 62.63 30.2284V38.2893C62.63 41.6225 65.3425 44.335 68.6757 44.335H108.98V66.5025C108.98 69.8357 106.268 72.5482 102.935 72.5482ZM30.3864 72.5482C30.3864 74.771 32.194 76.5787 34.4168 76.5787C38.8624 76.5787 42.4778 80.194 42.4778 84.6396C42.4778 88.3839 39.8983 91.5135 36.4321 92.4143V96.731C36.4321 97.8434 35.5292 98.7462 34.4168 98.7462C33.3044 98.7462 32.4016 97.8434 32.4016 96.731V92.4123C28.9354 91.5115 26.3559 88.3819 26.3559 84.6376C26.3559 83.5252 27.2587 82.6223 28.3712 82.6223C29.4836 82.6223 30.3864 83.5252 30.3864 84.6376C30.3864 86.8604 32.194 88.668 34.4168 88.668C36.6396 88.668 38.4473 86.8604 38.4473 84.6376C38.4473 82.4148 36.6396 80.6071 34.4168 80.6071C29.9712 80.6071 26.3559 76.9918 26.3559 72.5462C26.3559 68.8019 28.9354 65.6723 32.4016 64.7714V60.4568C32.4016 59.3444 33.3044 58.4416 34.4168 58.4416C35.5292 58.4416 36.4321 59.3444 36.4321 60.4568V64.7755C39.8983 65.6763 42.4778 68.8059 42.4778 72.5502C42.4778 73.6626 41.5749 74.5655 40.4625 74.5655C39.3501 74.5655 38.4473 73.6626 38.4473 72.5502C38.4473 70.3274 36.6396 68.5198 34.4168 68.5198C32.194 68.5198 30.3864 70.3254 30.3864 72.5482ZM43.1649 55.9508C42.909 56.8294 42.1049 57.3997 41.2323 57.3997C41.0449 57.3997 40.8535 57.3736 40.664 57.3171C38.3062 56.6259 35.8134 56.3337 33.3588 56.4486C32.2545 56.4566 31.3033 55.6405 31.2529 54.528C31.2026 53.4156 32.061 52.4725 33.1734 52.4221C36.0613 52.2952 39.0136 52.6317 41.7986 53.4499C42.8667 53.7643 43.4793 54.8827 43.1649 55.9508ZM17.0597 61.6317C16.3322 60.7914 16.4229 59.5178 17.2632 58.7882C19.4759 56.8718 21.9688 55.3482 24.6793 54.262C25.7171 53.8469 26.8859 54.3507 27.2991 55.3825C27.7142 56.4163 27.2124 57.5892 26.1786 58.0023C23.8873 58.9212 21.7753 60.209 19.9032 61.8332C19.5223 62.1637 19.0527 62.325 18.5852 62.325C18.0209 62.329 17.4587 62.0932 17.0597 61.6317ZM55.7561 63.3951C56.403 64.3019 56.1914 65.5594 55.2865 66.2063C54.9319 66.4602 54.5228 66.5811 54.1177 66.5811C53.4869 66.5811 52.8683 66.2869 52.4753 65.7367C51.0384 63.7215 49.2872 61.9723 47.274 60.5334C46.3671 59.8865 46.1576 58.629 46.8044 57.7222C47.4473 56.8153 48.7068 56.6037 49.6157 57.2526C51.9937 58.9495 54.0613 61.0171 55.7561 63.3951ZM14.7059 88.7486C15.2157 89.7381 14.8288 90.9533 13.8393 91.4652C13.5431 91.6183 13.2267 91.6889 12.9164 91.6889C12.1869 91.6889 11.4815 91.2919 11.1228 90.5986C9.78067 87.999 8.89196 85.2139 8.47884 82.316C8.32165 81.2157 9.08945 80.194 10.1918 80.0368C11.286 79.8937 12.3138 80.6474 12.471 81.7498C12.8196 84.1962 13.5713 86.552 14.7059 88.7486ZM57.0579 69.8478C58.126 69.5294 59.2445 70.1441 59.5588 71.2141C60.2581 73.6002 60.6128 76.0829 60.6128 78.5919C60.6128 81.5301 60.1291 84.4139 59.1779 87.1647C58.8898 87.999 58.1099 88.5209 57.2736 88.5209C57.0559 88.5209 56.8322 88.4846 56.6146 88.4081C55.5626 88.0453 55.0064 86.8966 55.3692 85.8447C56.1753 83.5191 56.5844 81.0787 56.5844 78.5939C56.5844 76.4678 56.2841 74.366 55.6936 72.3487C55.3792 71.2786 55.9919 70.1582 57.0579 69.8478ZM54.6699 91.9609C55.5445 92.6501 55.6956 93.9177 55.0064 94.7903C53.1968 97.0897 51.0324 99.0545 48.5779 100.634C48.2413 100.852 47.8624 100.955 47.4896 100.955C46.8266 100.955 46.1777 100.628 45.7928 100.03C45.1903 99.0948 45.4603 97.8474 46.3974 97.2448C48.4751 95.9067 50.3069 94.2421 51.8405 92.2954C52.5297 91.4249 53.7993 91.2737 54.6699 91.9609ZM42.0747 101.626C42.3347 102.708 41.6696 103.796 40.5895 104.058C38.5783 104.544 36.5006 104.792 34.4168 104.792C33.5765 104.792 32.7462 104.752 31.928 104.675C30.8197 104.572 30.0055 103.589 30.1103 102.48C30.2131 101.372 31.1925 100.546 32.3049 100.663C34.7232 100.888 37.2583 100.719 39.6443 100.141C40.7225 99.8808 41.8127 100.544 42.0747 101.626ZM15.2157 67.5061C13.9764 69.6503 13.1118 71.9678 12.6463 74.3922C12.4609 75.3574 11.6165 76.0285 10.6694 76.0285C10.5424 76.0285 10.4175 76.0164 10.2885 75.9922C9.19626 75.7827 8.48085 74.7267 8.69044 73.6344C9.24059 70.7647 10.2623 68.024 11.7294 65.4889C12.2876 64.5236 13.5189 64.1951 14.4842 64.7533C15.4435 65.3095 15.7719 66.5428 15.2157 67.5061ZM26.1967 101.432C25.8582 102.172 25.1266 102.607 24.3629 102.607C24.0827 102.607 23.7966 102.549 23.5245 102.424C20.8725 101.209 18.4522 99.5684 16.3342 97.5471C15.5281 96.7793 15.4979 95.5037 16.2657 94.6976C17.0355 93.8915 18.3111 93.8633 19.1152 94.6291C20.9108 96.342 22.9583 97.7305 25.2032 98.7583C26.2149 99.2258 26.6602 100.421 26.1967 101.432Z" fill="black"/>
</g>
</svg>
