<svg width="327" height="450" viewBox="0 0 327 450" fill="none" xmlns="http://www.w3.org/2000/svg">
<g style="mix-blend-mode:soft-light" opacity="0.5">
<path d="M1.24756 19.7451C7.9801 21.1105 19.2452 30.1397 33.5637 26.2993C47.8822 22.459 54.8044 1.14052 69.9763 1.3112C85.1482 1.48188 91.217 24.9851 106.389 27.1186C121.561 29.2522 127.63 10.7842 142.802 11.5522C157.973 12.3203 164.042 31.1468 179.214 30.8054C194.386 30.464 200.455 10.7671 215.627 9.91367C230.799 9.06025 236.867 27.1357 252.039 26.709C267.211 26.2823 273.28 5.64657 288.452 7.86547C303.624 10.0844 317.279 31.215 324.865 37.3597" stroke="#FFF2F2" stroke-width="2.5" stroke-linecap="round"/>
<path d="M1.24756 430.53C7.9801 431.895 19.2452 440.924 33.5637 437.084C47.8822 433.243 54.8044 411.925 69.9763 412.096C85.1482 412.266 91.217 435.77 106.389 437.903C121.561 440.037 127.63 421.569 142.802 422.337C157.973 423.105 164.042 441.931 179.214 441.59C194.386 441.249 200.455 421.552 215.627 420.698C230.799 419.845 236.867 437.92 252.039 437.494C267.211 437.067 273.28 416.431 288.452 418.65C303.624 420.869 317.279 442 324.865 448.144" stroke="#FFF2F2" stroke-width="2.5" stroke-linecap="round"/>
<path d="M1.24756 414.73C7.9801 416.096 19.2452 425.125 33.5637 421.285C47.8822 417.444 54.8044 396.126 69.9763 396.296C85.1482 396.467 91.217 419.97 106.389 422.104C121.561 424.237 127.63 405.769 142.802 406.537C157.973 407.306 164.042 426.132 179.214 425.791C194.386 425.449 200.455 405.752 215.627 404.899C230.799 404.045 236.867 422.121 252.039 421.694C267.211 421.268 273.28 400.632 288.452 402.851C303.624 405.07 317.279 426.2 324.865 432.345" stroke="#FFF2F2" stroke-width="2.5" stroke-linecap="round"/>
<path d="M1.24756 398.931C7.9801 400.296 19.2452 409.326 33.5637 405.485C47.8822 401.645 54.8044 380.326 69.9763 380.497C85.1482 380.668 91.217 404.171 106.389 406.304C121.561 408.438 127.63 389.97 142.802 390.738C157.973 391.506 164.042 410.333 179.214 409.991C194.386 409.65 200.455 389.953 215.627 389.099C230.799 388.246 236.867 406.321 252.039 405.895C267.211 405.468 273.28 384.832 288.452 387.051C303.624 389.27 317.279 410.401 324.865 416.545" stroke="#FFF2F2" stroke-width="2.5" stroke-linecap="round"/>
<path d="M1.24756 383.131C7.9801 384.497 19.2452 393.526 33.5637 389.686C47.8822 385.845 54.8044 364.527 69.9763 364.698C85.1482 364.868 91.217 388.371 106.389 390.505C121.561 392.639 127.63 374.171 142.802 374.939C157.973 375.707 164.042 394.533 179.214 394.192C194.386 393.85 200.455 374.153 215.627 373.3C230.799 372.447 236.867 390.522 252.039 390.095C267.211 389.669 273.28 369.033 288.452 371.252C303.624 373.471 317.279 394.601 324.865 400.746" stroke="#FFF2F2" stroke-width="2.5" stroke-linecap="round"/>
<path d="M1.24756 367.332C7.9801 368.698 19.2452 377.727 33.5637 373.886C47.8822 370.046 54.8044 348.727 69.9763 348.898C85.1482 349.069 91.217 372.572 106.389 374.706C121.561 376.839 127.63 358.371 142.802 359.139C157.973 359.907 164.042 378.734 179.214 378.392C194.386 378.051 200.455 358.354 215.627 357.501C230.799 356.647 236.867 374.723 252.039 374.296C267.211 373.869 273.28 353.234 288.452 355.452C303.624 357.671 317.279 378.802 324.865 384.947" stroke="#FFF2F2" stroke-width="2.5" stroke-linecap="round"/>
<path d="M1.24756 351.533C7.9801 352.898 19.2452 361.927 33.5637 358.087C47.8822 354.247 54.8044 332.928 69.9763 333.099C85.1482 333.269 91.217 356.773 106.389 358.906C121.561 361.04 127.63 342.572 142.802 343.34C157.973 344.108 164.042 362.934 179.214 362.593C194.386 362.252 200.455 342.555 215.627 341.701C230.799 340.848 236.867 358.923 252.039 358.497C267.211 358.07 273.28 337.434 288.452 339.653C303.624 341.872 317.279 363.003 324.865 369.147" stroke="#FFF2F2" stroke-width="2.5" stroke-linecap="round"/>
<path d="M1.24756 335.733C7.9801 337.099 19.2452 346.128 33.5637 342.288C47.8822 338.447 54.8044 317.129 69.9763 317.299C85.1482 317.47 91.217 340.973 106.389 343.107C121.561 345.24 127.63 326.772 142.802 327.54C157.973 328.308 164.042 347.135 179.214 346.794C194.386 346.452 200.455 326.755 215.627 325.902C230.799 325.048 236.867 343.124 252.039 342.697C267.211 342.27 273.28 321.635 288.452 323.854C303.624 326.073 317.279 347.203 324.865 353.348" stroke="#FFF2F2" stroke-width="2.5" stroke-linecap="round"/>
<path d="M1.24756 319.934C7.9801 321.299 19.2452 330.328 33.5637 326.488C47.8822 322.648 54.8044 301.329 69.9763 301.5C85.1482 301.671 91.217 325.174 106.389 327.307C121.561 329.441 127.63 310.973 142.802 311.741C157.973 312.509 164.042 331.335 179.214 330.994C194.386 330.653 200.455 310.956 215.627 310.102C230.799 309.249 236.867 327.324 252.039 326.898C267.211 326.471 273.28 305.835 288.452 308.054C303.624 310.273 317.279 331.404 324.865 337.548" stroke="#FFF2F2" stroke-width="2.5" stroke-linecap="round"/>
<path d="M1.24756 304.134C7.9801 305.5 19.2452 314.529 33.5637 310.689C47.8822 306.848 54.8044 285.53 69.9763 285.701C85.1482 285.871 91.217 309.374 106.389 311.508C121.561 313.642 127.63 295.174 142.802 295.942C157.973 296.71 164.042 315.536 179.214 315.195C194.386 314.853 200.455 295.156 215.627 294.303C230.799 293.45 236.867 311.525 252.039 311.098C267.211 310.672 273.28 290.036 288.452 292.255C303.624 294.474 317.279 315.604 324.865 321.749" stroke="#FFF2F2" stroke-width="2.5" stroke-linecap="round"/>
<path d="M1.24756 288.335C7.9801 289.701 19.2452 298.73 33.5637 294.889C47.8822 291.049 54.8044 269.73 69.9763 269.901C85.1482 270.072 91.217 293.575 106.389 295.709C121.561 297.842 127.63 279.374 142.802 280.142C157.973 280.91 164.042 299.737 179.214 299.395C194.386 299.054 200.455 279.357 215.627 278.504C230.799 277.65 236.867 295.726 252.039 295.299C267.211 294.872 273.28 274.237 288.452 276.455C303.624 278.674 317.279 299.805 324.865 305.95" stroke="#FFF2F2" stroke-width="2.5" stroke-linecap="round"/>
<path d="M1.24756 272.536C7.9801 273.901 19.2452 282.93 33.5637 279.09C47.8822 275.249 54.8044 253.931 69.9763 254.102C85.1482 254.272 91.217 277.776 106.389 279.909C121.561 282.043 127.63 263.575 142.802 264.343C157.973 265.111 164.042 283.937 179.214 283.596C194.386 283.255 200.455 263.558 215.627 262.704C230.799 261.851 236.867 279.926 252.039 279.5C267.211 279.073 273.28 258.437 288.452 260.656C303.624 262.875 317.279 284.006 324.865 290.15" stroke="#FFF2F2" stroke-width="2.5" stroke-linecap="round"/>
<path d="M1.24756 256.736C7.9801 258.102 19.2452 267.131 33.5637 263.29C47.8822 259.45 54.8044 238.132 69.9763 238.302C85.1482 238.473 91.217 261.976 106.389 264.11C121.561 266.243 127.63 247.775 142.802 248.543C157.973 249.311 164.042 268.138 179.214 267.796C194.386 267.455 200.455 247.758 215.627 246.905C230.799 246.051 236.867 264.127 252.039 263.7C267.211 263.273 273.28 242.638 288.452 244.857C303.624 247.075 317.279 268.206 324.865 274.351" stroke="#FFF2F2" stroke-width="2.5" stroke-linecap="round"/>
<path d="M1.24756 240.937C7.9801 242.302 19.2452 251.331 33.5637 247.491C47.8822 243.651 54.8044 222.332 69.9763 222.503C85.1482 222.674 91.217 246.177 106.389 248.31C121.561 250.444 127.63 231.976 142.802 232.744C157.973 233.512 164.042 252.338 179.214 251.997C194.386 251.656 200.455 231.959 215.627 231.105C230.799 230.252 236.867 248.327 252.039 247.901C267.211 247.474 273.28 226.838 288.452 229.057C303.624 231.276 317.279 252.407 324.865 258.551" stroke="#FFF2F2" stroke-width="2.5" stroke-linecap="round"/>
<path d="M1.24756 225.137C7.9801 226.503 19.2452 235.532 33.5637 231.692C47.8822 227.851 54.8044 206.533 69.9763 206.704C85.1482 206.874 91.217 230.377 106.389 232.511C121.561 234.645 127.63 216.176 142.802 216.945C157.973 217.713 164.042 236.539 179.214 236.198C194.386 235.856 200.455 216.159 215.627 215.306C230.799 214.453 236.867 232.528 252.039 232.101C267.211 231.675 273.28 211.039 288.452 213.258C303.624 215.477 317.279 236.607 324.865 242.752" stroke="#FFF2F2" stroke-width="2.5" stroke-linecap="round"/>
<path d="M1.24756 209.338C7.9801 210.703 19.2452 219.733 33.5637 215.892C47.8822 212.052 54.8044 190.733 69.9763 190.904C85.1482 191.075 91.217 214.578 106.389 216.712C121.561 218.845 127.63 200.377 142.802 201.145C157.973 201.913 164.042 220.74 179.214 220.398C194.386 220.057 200.455 200.36 215.627 199.507C230.799 198.653 236.867 216.729 252.039 216.302C267.211 215.875 273.28 195.239 288.452 197.458C303.624 199.677 317.279 220.808 324.865 226.953" stroke="#FFF2F2" stroke-width="2.5" stroke-linecap="round"/>
<path d="M1.24756 193.539C7.9801 194.904 19.2452 203.933 33.5637 200.093C47.8822 196.252 54.8044 174.934 69.9763 175.105C85.1482 175.275 91.217 198.779 106.389 200.912C121.561 203.046 127.63 184.578 142.802 185.346C157.973 186.114 164.042 204.94 179.214 204.599C194.386 204.257 200.455 184.561 215.627 183.707C230.799 182.854 236.867 200.929 252.039 200.502C267.211 200.076 273.28 179.44 288.452 181.659C303.624 183.878 317.279 205.008 324.865 211.153" stroke="#FFF2F2" stroke-width="2.5" stroke-linecap="round"/>
<path d="M1.24756 177.739C7.9801 179.105 19.2452 188.134 33.5637 184.293C47.8822 180.453 54.8044 159.135 69.9763 159.305C85.1482 159.476 91.217 182.979 106.389 185.113C121.561 187.246 127.63 168.778 142.802 169.546C157.973 170.314 164.042 189.141 179.214 188.799C194.386 188.458 200.455 168.761 215.627 167.908C230.799 167.054 236.867 185.13 252.039 184.703C267.211 184.276 273.28 163.641 288.452 165.86C303.624 168.078 317.279 189.209 324.865 195.354" stroke="#FFF2F2" stroke-width="2.5" stroke-linecap="round"/>
<path d="M1.24756 161.94C7.9801 163.305 19.2452 172.334 33.5637 168.494C47.8822 164.654 54.8044 143.335 69.9763 143.506C85.1482 143.677 91.217 167.18 106.389 169.313C121.561 171.447 127.63 152.979 142.802 153.747C157.973 154.515 164.042 173.341 179.214 173C194.386 172.659 200.455 152.962 215.627 152.108C230.799 151.255 236.867 169.33 252.039 168.904C267.211 168.477 273.28 147.841 288.452 150.06C303.624 152.279 317.279 173.41 324.865 179.554" stroke="#FFF2F2" stroke-width="2.5" stroke-linecap="round"/>
<path d="M1.24756 146.14C7.9801 147.506 19.2452 156.535 33.5637 152.695C47.8822 148.854 54.8044 127.536 69.9763 127.706C85.1482 127.877 91.217 151.38 106.389 153.514C121.561 155.647 127.63 137.179 142.802 137.948C157.973 138.716 164.042 157.542 179.214 157.201C194.386 156.859 200.455 137.162 215.627 136.309C230.799 135.456 236.867 153.531 252.039 153.104C267.211 152.678 273.28 132.042 288.452 134.261C303.624 136.48 317.279 157.61 324.865 163.755" stroke="#FFF2F2" stroke-width="2.5" stroke-linecap="round"/>
<path d="M1.24756 130.341C7.9801 131.706 19.2452 140.736 33.5637 136.895C47.8822 133.055 54.8044 111.736 69.9763 111.907C85.1482 112.078 91.217 135.581 106.389 137.714C121.561 139.848 127.63 121.38 142.802 122.148C157.973 122.916 164.042 141.743 179.214 141.401C194.386 141.06 200.455 121.363 215.627 120.51C230.799 119.656 236.867 137.732 252.039 137.305C267.211 136.878 273.28 116.242 288.452 118.461C303.624 120.68 317.279 141.811 324.865 147.956" stroke="#FFF2F2" stroke-width="2.5" stroke-linecap="round"/>
<path d="M1.24756 114.542C7.9801 115.907 19.2452 124.936 33.5637 121.096C47.8822 117.255 54.8044 95.937 69.9763 96.1076C85.1482 96.2783 91.217 119.782 106.389 121.915C121.561 124.049 127.63 105.581 142.802 106.349C157.973 107.117 164.042 125.943 179.214 125.602C194.386 125.26 200.455 105.564 215.627 104.71C230.799 103.857 236.867 121.932 252.039 121.505C267.211 121.079 273.28 100.443 288.452 102.662C303.624 104.881 317.279 126.011 324.865 132.156" stroke="#FFF2F2" stroke-width="2.5" stroke-linecap="round"/>
<path d="M1.24756 98.7421C7.9801 100.108 19.2452 109.137 33.5637 105.296C47.8822 101.456 54.8044 80.1376 69.9763 80.3082C85.1482 80.4789 91.217 103.982 106.389 106.116C121.561 108.249 127.63 89.7812 142.802 90.5493C157.973 91.3174 164.042 110.144 179.214 109.802C194.386 109.461 200.455 89.7641 215.627 88.9107C230.799 88.0573 236.867 106.133 252.039 105.706C267.211 105.279 273.28 84.6436 288.452 86.8625C303.624 89.0814 317.279 110.212 324.865 116.357" stroke="#FFF2F2" stroke-width="2.5" stroke-linecap="round"/>
<path d="M1.24756 82.9427C7.9801 84.3082 19.2452 93.3374 33.5637 89.497C47.8822 85.6566 54.8044 64.3381 69.9763 64.5088C85.1482 64.6795 91.217 88.1827 106.389 90.3163C121.561 92.4498 127.63 73.9818 142.802 74.7499C157.973 75.518 164.042 94.3444 179.214 94.003C194.386 93.6617 200.455 73.9647 215.627 73.1113C230.799 72.2579 236.867 90.3333 252.039 89.9066C267.211 89.4799 273.28 68.8442 288.452 71.0631C303.624 73.282 317.279 94.4127 324.865 100.557" stroke="#FFF2F2" stroke-width="2.5" stroke-linecap="round"/>
<path d="M1.24756 67.1433C7.9801 68.5088 19.2452 77.538 33.5637 73.6976C47.8822 69.8572 54.8044 48.5387 69.9763 48.7094C85.1482 48.8801 91.217 72.3833 106.389 74.5168C121.561 76.6504 127.63 58.1824 142.802 58.9505C157.973 59.7185 164.042 78.545 179.214 78.2036C194.386 77.8623 200.455 58.1653 215.627 57.3119C230.799 56.4585 236.867 74.5339 252.039 74.1072C267.211 73.6805 273.28 53.0448 288.452 55.2637C303.624 57.4826 317.279 78.6133 324.865 84.7579" stroke="#FFF2F2" stroke-width="2.5" stroke-linecap="round"/>
<path d="M1.24756 51.3439C7.9801 52.7094 19.2452 61.7385 33.5637 57.8982C47.8822 54.0578 54.8044 32.7393 69.9763 32.91C85.1482 33.0807 91.217 56.5839 106.389 58.7174C121.561 60.851 127.63 42.383 142.802 43.1511C157.973 43.9191 164.042 62.7456 179.214 62.4042C194.386 62.0628 200.455 42.3659 215.627 41.5125C230.799 40.6591 236.867 58.7345 252.039 58.3078C267.211 57.8811 273.28 37.2454 288.452 39.4643C303.624 41.6832 317.279 62.8139 324.865 68.9585" stroke="#FFF2F2" stroke-width="2.5" stroke-linecap="round"/>
<path d="M1.24756 35.5445C7.9801 36.91 19.2452 45.9391 33.5637 42.0988C47.8822 38.2584 54.8044 16.9399 69.9763 17.1106C85.1482 17.2813 91.217 40.7845 106.389 42.918C121.561 45.0516 127.63 26.5836 142.802 27.3516C157.973 28.1197 164.042 46.9462 179.214 46.6048C194.386 46.2634 200.455 26.5665 215.627 25.7131C230.799 24.8597 236.867 42.9351 252.039 42.5084C267.211 42.0817 273.28 21.446 288.452 23.6649C303.624 25.8838 317.279 47.0145 324.865 53.1591" stroke="#FFF2F2" stroke-width="2.5" stroke-linecap="round"/>
</g>
</svg>
