<svg width="110" height="109" viewBox="0 0 110 109" fill="none" xmlns="http://www.w3.org/2000/svg">
<g style="mix-blend-mode:overlay">
<path d="M105.461 97.5972V35.5282C108.002 35.5282 108.84 34.443 109.097 33.5306C109.353 32.6202 109.203 31.2593 107.033 29.9489L59.3142 1.16927C56.9497 -0.255641 53.0264 -0.255641 50.6619 1.16927L2.941 29.9509C0.768691 31.2613 0.619211 32.6202 0.877403 33.5326C1.13365 34.445 1.97229 35.5282 4.51345 35.5282V97.5972C2.25766 98.395 0.630859 100.515 0.630859 103.027C0.630859 106.218 3.24384 108.812 6.45474 108.812H103.519C106.73 108.812 109.343 106.217 109.343 103.027C109.343 100.517 107.716 98.395 105.461 97.5972ZM101.578 97.2419H97.6955V35.5282H101.578V97.2419ZM16.1612 35.5282H93.8129V97.2419H16.1612V35.5282ZM52.6769 4.46752C53.2515 4.11809 54.0941 3.92008 54.9871 3.92008C55.8801 3.92008 56.7245 4.11809 57.2972 4.46752L102.405 31.6747H95.7542H14.2238H14.2199H14.216H7.56904L52.6769 4.46752ZM12.2786 35.5282V97.2419H8.39603V35.5282H12.2786ZM103.519 104.957H6.45474C5.38509 104.957 4.51345 104.093 4.51345 103.029C4.51345 101.967 5.38509 101.099 6.45474 101.099H103.519C104.589 101.099 105.461 101.967 105.461 103.029C105.461 104.091 104.589 104.957 103.519 104.957ZM54.9871 39.3856C40.0003 39.3856 27.809 51.4973 27.809 66.3851C27.809 81.2728 40.0003 93.3865 54.9871 93.3865C69.9738 93.3865 82.1652 81.2748 82.1652 66.3851C82.1652 51.4973 69.9738 39.3856 54.9871 39.3856ZM54.9871 89.5272C42.1415 89.5272 31.6915 79.1471 31.6915 66.3851C31.6915 53.6269 42.1415 43.2429 54.9871 43.2429C67.8326 43.2429 78.2826 53.6269 78.2826 66.3851C78.2826 79.1471 67.8326 89.5272 54.9871 89.5272ZM51.1045 61.5648C51.1045 63.6925 52.8458 65.4222 54.9871 65.4222C59.2696 65.4222 62.7522 68.8816 62.7522 73.1349C62.7522 76.7205 60.2674 79.712 56.9284 80.5759V82.7793C56.9284 83.8412 56.0587 84.705 54.9871 84.705C53.9155 84.705 53.0458 83.8412 53.0458 82.7793V80.5759C49.7067 79.712 47.2219 76.7205 47.2219 73.1349C47.2219 72.0692 48.0916 71.2072 49.1632 71.2072C50.2348 71.2072 51.1045 72.0692 51.1045 73.1349C51.1045 75.2626 52.8458 76.9923 54.9871 76.9923C57.1283 76.9923 58.8696 75.2626 58.8696 73.1349C58.8696 71.0073 57.1283 69.2795 54.9871 69.2795C50.7046 69.2795 47.2219 65.8182 47.2219 61.5648C47.2219 57.9637 49.732 54.9528 53.0982 54.1103C53.0865 54.021 53.0458 53.9414 53.0458 53.8501V49.9947C53.0458 48.929 53.9155 48.0651 54.9871 48.0651C56.0587 48.0651 56.9284 48.927 56.9284 49.9947V53.8501C56.9284 53.9433 56.8876 54.021 56.8759 54.1103C60.2421 54.9528 62.7522 57.9637 62.7522 61.5648C62.7522 62.6287 61.8825 63.4945 60.8109 63.4945C59.7393 63.4945 58.8696 62.6306 58.8696 61.5648C58.8696 59.4372 57.1283 57.7094 54.9871 57.7094C52.8458 57.7094 51.1045 59.4372 51.1045 61.5648Z" fill="black"/>
</g>
</svg>
