<svg width="317" height="407" viewBox="0 0 317 407" fill="none" xmlns="http://www.w3.org/2000/svg">
<g style="mix-blend-mode:soft-light" opacity="0.5">
<path opacity="0.8" d="M287.835 341.394L217.49 237.378C217.309 237.11 216.987 237.075 216.772 237.3C216.556 237.524 216.528 237.923 216.709 238.191L287.054 342.208C287.235 342.475 287.556 342.51 287.772 342.286C287.988 342.061 288.016 341.662 287.835 341.394Z" fill="white" stroke="white" stroke-width="2.5"/>
<path opacity="0.66" d="M45.7297 223.73L23.8834 191.427C23.7024 191.159 23.3808 191.124 23.1651 191.349C22.9494 191.573 22.9213 191.972 23.1023 192.24L44.9486 224.543C45.1296 224.811 45.4511 224.846 45.6668 224.621C45.8825 224.396 45.9107 223.997 45.7297 223.73Z" fill="white" stroke="white" stroke-width="2.5"/>
<path opacity="0.73" d="M255.623 179.174L238.146 153.331C237.965 153.064 237.644 153.029 237.428 153.253C237.212 153.478 237.184 153.877 237.365 154.144L254.842 179.987C255.023 180.255 255.345 180.29 255.56 180.065C255.776 179.841 255.804 179.442 255.623 179.174Z" fill="white" stroke="white" stroke-width="2.5"/>
<path opacity="0.74" d="M194.504 218.181L119.134 106.734C118.953 106.467 118.632 106.432 118.416 106.656C118.2 106.881 118.172 107.28 118.353 107.547L193.723 218.994C193.904 219.261 194.226 219.296 194.441 219.072C194.657 218.847 194.685 218.448 194.504 218.181Z" fill="white" stroke="white" stroke-width="2.5"/>
<path opacity="0.34" d="M260.223 336.976L240.343 307.58C240.162 307.312 239.841 307.277 239.625 307.502C239.409 307.726 239.381 308.125 239.562 308.393L259.442 337.789C259.623 338.057 259.945 338.092 260.161 337.867C260.376 337.642 260.404 337.243 260.223 336.976Z" fill="white" stroke="white" stroke-width="2.5"/>
<path opacity="0.13" d="M289.973 103.639L255.456 52.5998C255.275 52.3322 254.953 52.2973 254.737 52.5219C254.522 52.7464 254.494 53.1454 254.675 53.413L289.192 104.452C289.373 104.72 289.694 104.755 289.91 104.53C290.126 104.306 290.154 103.907 289.973 103.639Z" fill="white" stroke="white" stroke-width="2.5"/>
<path opacity="0.33" d="M131.121 118.479L101.628 74.8691C101.447 74.6015 101.126 74.5666 100.91 74.7911C100.695 75.0157 100.666 75.4146 100.847 75.6822L130.34 119.292C130.521 119.559 130.842 119.594 131.058 119.37C131.274 119.145 131.302 118.746 131.121 118.479Z" fill="white" stroke="white" stroke-width="2.5"/>
<path opacity="0.6" d="M105.704 223.292L67.9097 167.407C67.7287 167.139 67.4072 167.104 67.1915 167.329C66.9758 167.553 66.9477 167.952 67.1287 168.22L104.923 224.105C105.104 224.372 105.425 224.407 105.641 224.183C105.857 223.958 105.885 223.559 105.704 223.292Z" fill="white" stroke="white" stroke-width="2.5"/>
<path opacity="0.79" d="M77.2038 366.647L54.2652 332.728C54.0842 332.461 53.7627 332.426 53.547 332.65C53.3313 332.875 53.3032 333.274 53.4841 333.542L76.4228 367.46C76.6037 367.728 76.9253 367.763 77.141 367.538C77.3567 367.314 77.3848 366.915 77.2038 366.647Z" fill="white" stroke="white" stroke-width="2.5"/>
<path opacity="0.38" d="M240.654 237.461L179.703 147.334C179.522 147.067 179.2 147.032 178.984 147.256C178.769 147.481 178.741 147.88 178.922 148.147L239.873 238.274C240.054 238.541 240.375 238.576 240.591 238.352C240.807 238.127 240.835 237.728 240.654 237.461Z" fill="white" stroke="white" stroke-width="2.5"/>
<path opacity="0.94" d="M68.0515 64.4752L40.3067 23.45C40.1257 23.1824 39.8042 23.1475 39.5885 23.372C39.3728 23.5966 39.3447 23.9956 39.5256 24.2632L67.2704 65.2884C67.4514 65.556 67.773 65.5909 67.9887 65.3663C68.2044 65.1418 68.2325 64.7428 68.0515 64.4752Z" fill="white" stroke="white" stroke-width="2.5"/>
<path opacity="0.47" d="M273.611 163.349L236.472 108.433C236.291 108.166 235.97 108.131 235.754 108.355C235.538 108.58 235.51 108.979 235.691 109.246L272.83 164.162C273.011 164.43 273.332 164.464 273.548 164.24C273.764 164.015 273.792 163.616 273.611 163.349Z" fill="white" stroke="white" stroke-width="2.5"/>
<path opacity="0.71" d="M245.852 58.8579L226.845 30.7541C226.664 30.4864 226.343 30.4515 226.127 30.6761C225.911 30.9006 225.883 31.2996 226.064 31.5672L245.071 59.6711C245.251 59.9387 245.573 59.9736 245.789 59.7491C246.004 59.5245 246.033 59.1255 245.852 58.8579Z" fill="white" stroke="white" stroke-width="2.5"/>
<path opacity="0.58" d="M70.8668 112.54L30.0142 52.1328C29.8332 51.8652 29.5117 51.8303 29.296 52.0548C29.0803 52.2794 29.0522 52.6783 29.2332 52.9459L70.0858 113.353C70.2667 113.621 70.5883 113.656 70.804 113.431C71.0197 113.207 71.0478 112.808 70.8668 112.54Z" fill="white" stroke="white" stroke-width="2.5"/>
<path opacity="0.26" d="M158.251 361.497L137.715 331.132C137.534 330.864 137.213 330.829 136.997 331.054C136.781 331.278 136.753 331.677 136.934 331.945L157.47 362.31C157.651 362.578 157.972 362.612 158.188 362.388C158.404 362.163 158.432 361.764 158.251 361.497Z" fill="white" stroke="white" stroke-width="2.5"/>
<path opacity="0.88" d="M104.733 265.02L81.7945 231.101C81.6135 230.834 81.292 230.799 81.0763 231.023C80.8606 231.248 80.8324 231.647 81.0134 231.914L103.952 265.833C104.133 266.101 104.455 266.135 104.67 265.911C104.886 265.686 104.914 265.287 104.733 265.02Z" fill="white" stroke="white" stroke-width="2.5"/>
<path opacity="0.74" d="M232.242 130.828L157.527 20.3507C157.346 20.0831 157.025 20.0482 156.809 20.2727C156.593 20.4973 156.565 20.8962 156.746 21.1638L231.461 131.641C231.642 131.909 231.963 131.944 232.179 131.719C232.395 131.495 232.423 131.096 232.242 130.828Z" fill="white" stroke="white" stroke-width="2.5"/>
<path opacity="0.97" d="M289.779 162.881L269.244 132.516C269.063 132.248 268.741 132.213 268.525 132.438C268.31 132.662 268.282 133.061 268.463 133.329L288.998 163.694C289.179 163.962 289.501 163.996 289.716 163.772C289.932 163.547 289.96 163.148 289.779 162.881Z" fill="white" stroke="white" stroke-width="2.5"/>
<path opacity="0.16" d="M171.504 72.7125L132.618 15.2126C132.437 14.945 132.115 14.9101 131.9 15.1347C131.684 15.3592 131.656 15.7582 131.837 16.0258L170.723 73.5257C170.904 73.7933 171.226 73.8282 171.441 73.6037C171.657 73.3791 171.685 72.9801 171.504 72.7125Z" fill="white" stroke="white" stroke-width="2.5"/>
<path opacity="0.13" d="M189.166 204.153L161.858 163.774C161.677 163.506 161.355 163.472 161.14 163.696C160.924 163.921 160.896 164.32 161.077 164.587L188.385 204.966C188.566 205.234 188.887 205.269 189.103 205.044C189.319 204.82 189.347 204.421 189.166 204.153Z" fill="white" stroke="white" stroke-width="2.5"/>
<path opacity="0.3" d="M91.8071 292.841L86.564 285.088C86.383 284.82 86.0615 284.785 85.8458 285.01C85.6301 285.235 85.602 285.634 85.783 285.901L91.0261 293.654C91.2071 293.922 91.5286 293.956 91.7443 293.732C91.96 293.507 91.9881 293.108 91.8071 292.841Z" fill="white" stroke="white" stroke-width="2.5"/>
<path opacity="0.07" d="M79.0119 318.62L49.7379 275.333C49.5569 275.066 49.2353 275.031 49.0196 275.255C48.8039 275.48 48.7758 275.879 48.9568 276.146L78.2308 319.433C78.4118 319.7 78.7334 319.735 78.9491 319.511C79.1648 319.286 79.1929 318.887 79.0119 318.62Z" fill="white" stroke="white" stroke-width="2.5"/>
<path opacity="0.42" d="M149.706 102.641L138.783 86.4896C138.602 86.2219 138.28 86.187 138.065 86.4116C137.849 86.6361 137.821 87.0351 138.002 87.3027L148.925 103.454C149.106 103.722 149.427 103.757 149.643 103.532C149.859 103.308 149.887 102.909 149.706 102.641Z" fill="white" stroke="white" stroke-width="2.5"/>
<path opacity="0.99" d="M263.524 136.638L232.284 90.4445C232.103 90.1769 231.781 90.142 231.566 90.3666C231.35 90.5911 231.322 90.9901 231.503 91.2577L262.743 137.451C262.924 137.719 263.245 137.754 263.461 137.529C263.677 137.305 263.705 136.906 263.524 136.638Z" fill="white" stroke="white" stroke-width="2.5"/>
<path opacity="0.77" d="M264.748 365.189L189.596 254.065C189.415 253.798 189.094 253.763 188.878 253.988C188.662 254.212 188.634 254.611 188.815 254.879L263.966 366.002C264.147 366.27 264.469 366.305 264.685 366.08C264.9 365.855 264.929 365.456 264.748 365.189Z" fill="white" stroke="white" stroke-width="2.5"/>
<path opacity="0.71" d="M179.115 321.545L141.321 265.661C141.14 265.393 140.818 265.358 140.603 265.583C140.387 265.807 140.359 266.206 140.54 266.474L178.334 322.358C178.515 322.626 178.836 322.661 179.052 322.436C179.268 322.212 179.296 321.813 179.115 321.545Z" fill="white" stroke="white" stroke-width="2.5"/>
<path opacity="0.43" d="M304.053 118.793L271.284 70.3379C271.103 70.0703 270.781 70.0354 270.566 70.2599C270.35 70.4845 270.322 70.8834 270.503 71.1511L303.272 119.606C303.453 119.874 303.775 119.909 303.99 119.684C304.206 119.459 304.234 119.06 304.053 118.793Z" fill="white" stroke="white" stroke-width="2.5"/>
<path opacity="0.95" d="M141.536 310.787L117.723 275.576C117.542 275.308 117.221 275.273 117.005 275.498C116.789 275.723 116.761 276.122 116.942 276.389L140.755 311.6C140.936 311.867 141.257 311.902 141.473 311.678C141.689 311.453 141.717 311.054 141.536 310.787Z" fill="white" stroke="white" stroke-width="2.5"/>
<path opacity="0.49" d="M250.196 234.731L208.906 173.678C208.725 173.41 208.404 173.376 208.188 173.6C207.972 173.825 207.944 174.224 208.125 174.491L249.415 235.545C249.596 235.812 249.917 235.847 250.133 235.622C250.349 235.398 250.377 234.999 250.196 234.731Z" fill="white" stroke="white" stroke-width="2.5"/>
<path opacity="0.8" d="M122.466 311.586L84.4537 255.378C84.2727 255.111 83.9511 255.076 83.7354 255.301C83.5198 255.525 83.4916 255.924 83.6726 256.192L121.685 312.399C121.866 312.667 122.188 312.702 122.403 312.477C122.619 312.253 122.647 311.854 122.466 311.586Z" fill="white" stroke="white" stroke-width="2.5"/>
<path opacity="0.43" d="M304.733 200.485L265.846 142.985C265.665 142.717 265.344 142.682 265.128 142.907C264.912 143.131 264.884 143.53 265.065 143.798L303.952 201.298C304.133 201.565 304.454 201.6 304.67 201.376C304.886 201.151 304.914 200.752 304.733 200.485Z" fill="white" stroke="white" stroke-width="2.5"/>
<path opacity="0.42" d="M133.453 276.369L119.69 256.018C119.509 255.75 119.187 255.715 118.971 255.94C118.756 256.164 118.727 256.563 118.908 256.831L132.672 277.182C132.853 277.449 133.174 277.484 133.39 277.26C133.606 277.035 133.634 276.636 133.453 276.369Z" fill="white" stroke="white" stroke-width="2.5"/>
<path opacity="0.66" d="M304.356 305.558L257.386 236.106C257.205 235.838 256.884 235.803 256.668 236.028C256.452 236.252 256.424 236.651 256.605 236.919L303.575 306.371C303.756 306.639 304.077 306.673 304.293 306.449C304.509 306.224 304.537 305.825 304.356 305.558Z" fill="white" stroke="white" stroke-width="2.5"/>
<path opacity="0.97" d="M49.4194 371.457L18.8345 326.232C18.6535 325.964 18.332 325.929 18.1163 326.154C17.9006 326.379 17.8725 326.778 18.0535 327.045L48.6383 372.27C48.8193 372.537 49.1408 372.572 49.3565 372.348C49.5722 372.123 49.6003 371.724 49.4194 371.457Z" fill="white" stroke="white" stroke-width="2.5"/>
<path opacity="0.99" d="M93.1412 134.484L68.2364 97.6587C68.0554 97.3911 67.7338 97.3562 67.5182 97.5807C67.3025 97.8053 67.2743 98.2042 67.4553 98.4719L92.3601 135.298C92.5411 135.565 92.8627 135.6 93.0783 135.376C93.294 135.151 93.3222 134.752 93.1412 134.484Z" fill="white" stroke="white" stroke-width="2.5"/>
<path opacity="0.86" d="M152.618 134.674L115.479 79.7582C115.298 79.4906 114.977 79.4557 114.761 79.6803C114.545 79.9048 114.517 80.3038 114.698 80.5714L151.837 135.487C152.018 135.755 152.339 135.79 152.555 135.565C152.771 135.34 152.799 134.941 152.618 134.674Z" fill="white" stroke="white" stroke-width="2.5"/>
<path opacity="0.74" d="M238.517 379.957L166.206 273.033C166.025 272.765 165.704 272.73 165.488 272.955C165.272 273.179 165.244 273.578 165.425 273.846L237.736 380.77C237.917 381.038 238.239 381.072 238.455 380.848C238.67 380.623 238.698 380.224 238.517 379.957Z" fill="white" stroke="white" stroke-width="2.5"/>
<path opacity="0.23" d="M192.745 389.322L138.566 309.21C138.385 308.942 138.064 308.907 137.848 309.132C137.633 309.356 137.604 309.755 137.785 310.023L191.964 390.135C192.145 390.403 192.467 390.438 192.682 390.213C192.898 389.989 192.926 389.59 192.745 389.322Z" fill="white" stroke="white" stroke-width="2.5"/>
<path opacity="0.36" d="M222.57 129.011L200.505 96.3849C200.324 96.1173 200.003 96.0824 199.787 96.3069C199.572 96.5315 199.543 96.9304 199.724 97.1981L221.789 129.824C221.97 130.092 222.292 130.127 222.507 129.902C222.723 129.678 222.751 129.279 222.57 129.011Z" fill="white" stroke="white" stroke-width="2.5"/>
<path opacity="0.37" d="M315.376 404.047L239.569 291.955C239.388 291.687 239.066 291.652 238.851 291.877C238.635 292.101 238.607 292.5 238.788 292.768L314.595 404.86C314.776 405.128 315.097 405.163 315.313 404.938C315.528 404.714 315.557 404.315 315.376 404.047Z" fill="white" stroke="white" stroke-width="2.5"/>
<path opacity="0.96" d="M193.207 268.628L151.699 207.252C151.518 206.984 151.197 206.949 150.981 207.174C150.765 207.398 150.737 207.797 150.918 208.065L192.426 269.441C192.607 269.709 192.929 269.744 193.144 269.519C193.36 269.295 193.388 268.896 193.207 268.628Z" fill="white" stroke="white" stroke-width="2.5"/>
<path opacity="0.88" d="M50.4147 58.6885L18.5191 11.5257C18.3381 11.2581 18.0166 11.2232 17.8009 11.4477C17.5852 11.6723 17.5571 12.0712 17.738 12.3389L49.6337 59.5017C49.8146 59.7693 50.1362 59.8042 50.3519 59.5797C50.5676 59.3551 50.5957 58.9561 50.4147 58.6885Z" fill="white" stroke="white" stroke-width="2.5"/>
<path opacity="0.12" d="M105.717 53.6361L86.9288 25.8553C86.7478 25.5877 86.4262 25.5528 86.2105 25.7773C85.9949 26.0019 85.9667 26.4008 86.1477 26.6684L104.936 54.4493C105.117 54.7169 105.438 54.7518 105.654 54.5273C105.869 54.3027 105.898 53.9037 105.717 53.6361Z" fill="white" stroke="white" stroke-width="2.5"/>
<path opacity="0.91" d="M153.661 263.469L111.716 201.447C111.535 201.179 111.214 201.144 110.998 201.369C110.782 201.593 110.754 201.992 110.935 202.26L152.88 264.282C153.061 264.55 153.383 264.585 153.598 264.36C153.814 264.136 153.842 263.737 153.661 263.469Z" fill="white" stroke="white" stroke-width="2.5"/>
<path opacity="0.68" d="M194.981 159.919L181.874 140.537C181.693 140.27 181.371 140.235 181.155 140.459C180.94 140.684 180.912 141.083 181.093 141.351L194.2 160.733C194.381 161 194.703 161.035 194.919 160.811C195.134 160.586 195.162 160.187 194.981 159.919Z" fill="white" stroke="white" stroke-width="2.5"/>
<path opacity="0.18" d="M108.785 381.794L53.9512 300.713C53.7702 300.446 53.4487 300.411 53.233 300.635C53.0173 300.86 52.9892 301.259 53.1702 301.526L108.004 382.608C108.185 382.875 108.507 382.91 108.723 382.686C108.938 382.461 108.966 382.062 108.785 381.794Z" fill="white" stroke="white" stroke-width="2.5"/>
<path opacity="0.33" d="M273.625 35.6729L267.726 26.951C267.545 26.6834 267.224 26.6485 267.008 26.873C266.792 27.0976 266.764 27.4965 266.945 27.7642L272.844 36.486C273.025 36.7537 273.346 36.7886 273.562 36.564C273.777 36.3395 273.806 35.9405 273.625 35.6729Z" fill="white" stroke="white" stroke-width="2.5"/>
<path opacity="0.97" d="M181.506 121.485L138.251 57.5248C138.07 57.2572 137.748 57.2223 137.532 57.4468C137.317 57.6714 137.289 58.0704 137.469 58.338L180.725 122.299C180.906 122.566 181.228 122.601 181.443 122.376C181.659 122.152 181.687 121.753 181.506 121.485Z" fill="white" stroke="white" stroke-width="2.5"/>
<path opacity="0.11" d="M190.51 262.207L107.494 139.455C107.313 139.187 106.992 139.152 106.776 139.377C106.56 139.601 106.532 140 106.713 140.268L189.729 263.021C189.91 263.288 190.232 263.323 190.447 263.099C190.663 262.874 190.691 262.475 190.51 262.207Z" fill="white" stroke="white" stroke-width="2.5"/>
<path opacity="0.1" d="M155.99 226.031L80.8384 114.908C80.6575 114.64 80.3359 114.605 80.1202 114.83C79.9045 115.054 79.8764 115.453 80.0574 115.721L155.209 226.844C155.39 227.112 155.711 227.147 155.927 226.922C156.143 226.698 156.171 226.299 155.99 226.031Z" fill="white" stroke="white" stroke-width="2.5"/>
<path opacity="0.92" d="M272.008 285.325L227.878 220.073C227.697 219.805 227.376 219.77 227.16 219.995C226.945 220.219 226.916 220.618 227.097 220.886L271.227 286.139C271.408 286.406 271.73 286.441 271.945 286.217C272.161 285.992 272.189 285.593 272.008 285.325Z" fill="white" stroke="white" stroke-width="2.5"/>
<path opacity="0.27" d="M92.6925 277.392L74.1231 249.934C73.9421 249.666 73.6206 249.631 73.4049 249.856C73.1892 250.081 73.1611 250.48 73.342 250.747L91.9114 278.205C92.0924 278.473 92.4139 278.508 92.6296 278.283C92.8453 278.058 92.8734 277.659 92.6925 277.392Z" fill="white" stroke="white" stroke-width="2.5"/>
<path opacity="0.18" d="M205.407 374.05L174.167 327.856C173.986 327.588 173.664 327.553 173.448 327.778C173.233 328.002 173.205 328.401 173.385 328.669L204.626 374.863C204.807 375.13 205.128 375.165 205.344 374.941C205.56 374.716 205.588 374.317 205.407 374.05Z" fill="white" stroke="white" stroke-width="2.5"/>
<path opacity="0.62" d="M108.168 366.458L87.1959 335.447C87.0149 335.18 86.6933 335.145 86.4776 335.369C86.2619 335.594 86.2338 335.993 86.4148 336.26L107.387 367.272C107.568 367.539 107.89 367.574 108.105 367.35C108.321 367.125 108.349 366.726 108.168 366.458Z" fill="white" stroke="white" stroke-width="2.5"/>
<path opacity="0.28" d="M154.171 61.0213L121.402 12.5664C121.221 12.2988 120.899 12.2639 120.684 12.4884C120.468 12.713 120.44 13.1119 120.621 13.3795L153.39 61.8345C153.571 62.1021 153.893 62.137 154.109 61.9125C154.324 61.6879 154.352 61.2889 154.171 61.0213Z" fill="white" stroke="white" stroke-width="2.5"/>
<path d="M76.4869 235.036L39.3482 180.12C39.1672 179.853 38.8457 179.818 38.63 180.042C38.4143 180.267 38.3862 180.666 38.5671 180.934L75.7059 235.849C75.8869 236.117 76.2084 236.152 76.4241 235.927C76.6398 235.703 76.6679 235.304 76.4869 235.036Z" fill="white" stroke="white" stroke-width="2.5"/>
<path opacity="0.38" d="M247.075 286.449L178.041 184.371C177.86 184.103 177.538 184.068 177.322 184.293C177.107 184.517 177.079 184.916 177.26 185.184L246.294 287.262C246.475 287.53 246.796 287.565 247.012 287.34C247.228 287.116 247.256 286.717 247.075 286.449Z" fill="white" stroke="white" stroke-width="2.5"/>
<path opacity="0.16" d="M50.2803 116.308L11.1754 58.4852C10.9944 58.2176 10.6728 58.1827 10.4571 58.4072C10.2414 58.6318 10.2133 59.0308 10.3943 59.2984L49.4992 117.121C49.6802 117.389 50.0017 117.424 50.2174 117.199C50.4331 116.975 50.4612 116.576 50.2803 116.308Z" fill="white" stroke="white" stroke-width="2.5"/>
<path opacity="0.16" d="M121.545 287.585L94.8921 248.175C94.7112 247.907 94.3896 247.872 94.1739 248.097C93.9582 248.321 93.9301 248.72 94.1111 248.988L120.764 288.398C120.945 288.666 121.266 288.701 121.482 288.476C121.697 288.251 121.726 287.853 121.545 287.585Z" fill="white" stroke="white" stroke-width="2.5"/>
<path opacity="0.83" d="M217.351 279.034L194.849 245.762C194.668 245.494 194.347 245.459 194.131 245.684C193.915 245.908 193.887 246.307 194.068 246.575L216.57 279.847C216.751 280.115 217.072 280.15 217.288 279.925C217.504 279.701 217.532 279.302 217.351 279.034Z" fill="white" stroke="white" stroke-width="2.5"/>
<path opacity="0.21" d="M58.5829 179.724L8.99176 106.395C8.81078 106.128 8.48922 106.093 8.27353 106.317C8.05785 106.542 8.02971 106.941 8.21069 107.209L57.8018 180.537C57.9828 180.805 58.3044 180.84 58.52 180.615C58.7357 180.391 58.7639 179.992 58.5829 179.724Z" fill="white" stroke="white" stroke-width="2.5"/>
<path opacity="0.55" d="M287.798 115.673L221.604 17.7943C221.423 17.5267 221.102 17.4918 220.886 17.7164C220.67 17.9409 220.642 18.3399 220.823 18.6075L287.017 116.487C287.198 116.754 287.52 116.789 287.736 116.564C287.951 116.34 287.979 115.941 287.798 115.673Z" fill="white" stroke="white" stroke-width="2.5"/>
<path opacity="0.66" d="M90.8095 112.8L50.1754 52.716C49.9944 52.4484 49.6728 52.4135 49.4571 52.638C49.2414 52.8626 49.2133 53.2616 49.3943 53.5292L90.0284 113.613C90.2094 113.881 90.531 113.916 90.7467 113.691C90.9623 113.467 90.9905 113.068 90.8095 112.8Z" fill="white" stroke="white" stroke-width="2.5"/>
<path opacity="0.79" d="M202.444 323.439L158.096 257.863C157.915 257.596 157.594 257.561 157.378 257.785C157.162 258.01 157.134 258.409 157.315 258.676L201.663 324.252C201.844 324.52 202.166 324.555 202.381 324.33C202.597 324.106 202.625 323.707 202.444 323.439Z" fill="white" stroke="white" stroke-width="2.5"/>
<path opacity="0.69" d="M284.827 332.141L253.805 286.27C253.624 286.002 253.302 285.968 253.087 286.192C252.871 286.417 252.843 286.816 253.024 287.083L284.045 332.954C284.226 333.222 284.548 333.256 284.764 333.032C284.979 332.807 285.007 332.408 284.827 332.141Z" fill="white" stroke="white" stroke-width="2.5"/>
<path opacity="0.45" d="M46.7378 83.0645L30.3531 58.837C30.1721 58.5694 29.8505 58.5345 29.6349 58.759C29.4192 58.9836 29.391 59.3826 29.572 59.6502L45.9568 83.8777C46.1377 84.1453 46.4593 84.1802 46.675 83.9556C46.8907 83.7311 46.9188 83.3321 46.7378 83.0645Z" fill="white" stroke="white" stroke-width="2.5"/>
<path opacity="0.91" d="M75.3106 287.342L54.1197 256.008C53.9387 255.74 53.6171 255.705 53.4015 255.93C53.1858 256.155 53.1576 256.553 53.3386 256.821L74.5295 288.155C74.7105 288.423 75.0321 288.458 75.2478 288.233C75.4635 288.009 75.4916 287.61 75.3106 287.342Z" fill="white" stroke="white" stroke-width="2.5"/>
<path opacity="0.93" d="M281.658 124.508L250.855 78.9603C250.674 78.6926 250.352 78.6577 250.137 78.8823C249.921 79.1068 249.893 79.5058 250.074 79.7734L280.877 125.321C281.058 125.589 281.38 125.624 281.596 125.399C281.811 125.175 281.839 124.776 281.658 124.508Z" fill="white" stroke="white" stroke-width="2.5"/>
<path opacity="0.36" d="M222.28 65.5063L202.836 36.7563C202.656 36.4887 202.334 36.4538 202.118 36.6784C201.903 36.9029 201.874 37.3019 202.055 37.5695L221.499 66.3195C221.68 66.5871 222.001 66.622 222.217 66.3974C222.433 66.1729 222.461 65.7739 222.28 65.5063Z" fill="white" stroke="white" stroke-width="2.5"/>
<path opacity="0.92" d="M275.76 59.7013L256.753 31.5974C256.572 31.3298 256.251 31.2949 256.035 31.5195C255.82 31.744 255.791 32.143 255.972 32.4106L274.979 60.5145C275.16 60.7821 275.481 60.817 275.697 60.5924C275.913 60.3679 275.941 59.9689 275.76 59.7013Z" fill="white" stroke="white" stroke-width="2.5"/>
<path opacity="0.45" d="M68.0741 287.264L11.0552 202.953C10.8743 202.685 10.5527 202.65 10.337 202.875C10.1213 203.099 10.0932 203.498 10.2742 203.766L67.293 288.078C67.474 288.345 67.7956 288.38 68.0113 288.156C68.227 287.931 68.2551 287.532 68.0741 287.264Z" fill="white" stroke="white" stroke-width="2.5"/>
<path opacity="0.9" d="M213.88 308.624L193.563 278.582C193.382 278.314 193.06 278.279 192.844 278.504C192.629 278.728 192.601 279.127 192.781 279.395L213.099 309.437C213.28 309.705 213.601 309.74 213.817 309.515C214.032 309.291 214.061 308.892 213.88 308.624Z" fill="white" stroke="white" stroke-width="2.5"/>
<path opacity="0.49" d="M78.3904 228.822L3.45758 118.021C3.2766 117.754 2.95504 117.719 2.73935 117.943C2.52367 118.168 2.49553 118.567 2.67651 118.834L77.6094 229.635C77.7903 229.902 78.1119 229.937 78.3276 229.713C78.5433 229.488 78.5714 229.089 78.3904 228.822Z" fill="white" stroke="white" stroke-width="2.5"/>
<path opacity="0.09" d="M246.202 183.572L203.383 120.258C203.202 119.99 202.881 119.955 202.665 120.18C202.449 120.405 202.421 120.803 202.602 121.071L245.421 184.386C245.602 184.653 245.924 184.688 246.139 184.464C246.355 184.239 246.383 183.84 246.202 183.572Z" fill="white" stroke="white" stroke-width="2.5"/>
<path opacity="0.47" d="M203.428 65.6695L163.231 6.23144C163.05 5.96383 162.728 5.92892 162.512 6.15347C162.297 6.37802 162.268 6.777 162.449 7.04461L202.647 66.4827C202.828 66.7503 203.149 66.7852 203.365 66.5607C203.581 66.3361 203.609 65.9371 203.428 65.6695Z" fill="white" stroke="white" stroke-width="2.5"/>
<path opacity="0.92" d="M132.854 208.868L56.3921 95.8061C56.2112 95.5385 55.8896 95.5036 55.6739 95.7281C55.4582 95.9527 55.4301 96.3516 55.6111 96.6193L132.073 209.681C132.254 209.948 132.576 209.983 132.791 209.759C133.007 209.534 133.035 209.135 132.854 208.868Z" fill="white" stroke="white" stroke-width="2.5"/>
<path opacity="0.63" d="M160.75 174.017L122.3 117.163C122.119 116.895 121.798 116.86 121.582 117.085C121.366 117.31 121.338 117.708 121.519 117.976L159.969 174.83C160.15 175.098 160.471 175.132 160.687 174.908C160.903 174.683 160.931 174.284 160.75 174.017Z" fill="white" stroke="white" stroke-width="2.5"/>
<path opacity="0.95" d="M126.557 366.575L101.434 329.426C101.253 329.159 100.932 329.124 100.716 329.348C100.5 329.573 100.472 329.972 100.653 330.24L125.776 367.388C125.957 367.656 126.279 367.691 126.495 367.466C126.71 367.242 126.738 366.843 126.557 366.575Z" fill="white" stroke="white" stroke-width="2.5"/>
<path opacity="0.62" d="M201.17 155.588L161.41 96.7961C161.229 96.5285 160.907 96.4936 160.691 96.7181C160.476 96.9427 160.448 97.3416 160.629 97.6092L200.389 156.401C200.57 156.669 200.891 156.704 201.107 156.479C201.323 156.255 201.351 155.856 201.17 155.588Z" fill="white" stroke="white" stroke-width="2.5"/>
<path opacity="0.14" d="M131.497 344.505L91.7369 285.713C91.5559 285.445 91.2343 285.411 91.0186 285.635C90.803 285.86 90.7748 286.259 90.9558 286.526L130.716 345.318C130.897 345.586 131.219 345.621 131.434 345.396C131.65 345.172 131.678 344.773 131.497 344.505Z" fill="white" stroke="white" stroke-width="2.5"/>
<path opacity="0.66" d="M129.652 272.961L94.2613 220.63C94.0803 220.362 93.7587 220.327 93.5431 220.552C93.3274 220.776 93.2992 221.175 93.4802 221.443L128.871 273.774C129.052 274.042 129.374 274.077 129.589 273.852C129.805 273.628 129.833 273.229 129.652 272.961Z" fill="white" stroke="white" stroke-width="2.5"/>
<path opacity="0.9" d="M175.801 283.227L124.243 206.991C124.062 206.723 123.741 206.688 123.525 206.913C123.309 207.137 123.281 207.536 123.462 207.804L175.019 284.04C175.2 284.307 175.522 284.342 175.738 284.118C175.953 283.893 175.981 283.494 175.801 283.227Z" fill="white" stroke="white" stroke-width="2.5"/>
<path opacity="0.65" d="M274.92 392.651L216.809 306.724C216.628 306.457 216.307 306.422 216.091 306.646C215.875 306.871 215.847 307.27 216.028 307.537L274.139 393.464C274.32 393.732 274.642 393.767 274.857 393.542C275.073 393.318 275.101 392.919 274.92 392.651Z" fill="white" stroke="white" stroke-width="2.5"/>
<path opacity="0.98" d="M60.2714 356.939L34.4927 318.821C34.3118 318.554 33.9902 318.519 33.7745 318.743C33.5588 318.968 33.5307 319.367 33.7117 319.635L59.4903 357.752C59.6713 358.02 59.9929 358.055 60.2085 357.83C60.4242 357.606 60.4524 357.207 60.2714 356.939Z" fill="white" stroke="white" stroke-width="2.5"/>
<path opacity="0.67" d="M182.03 114.144L166.956 91.8545C166.775 91.5869 166.453 91.552 166.237 91.7766C166.022 92.0011 165.994 92.4001 166.175 92.6677L181.249 114.957C181.429 115.225 181.751 115.26 181.967 115.035C182.182 114.81 182.211 114.411 182.03 114.144Z" fill="white" stroke="white" stroke-width="2.5"/>
<path opacity="0.36" d="M98.3478 85.8033L54.8736 21.5197C54.6926 21.2521 54.3711 21.2172 54.1554 21.4417C53.9397 21.6663 53.9115 22.0652 54.0925 22.3328L97.5667 86.6164C97.7477 86.884 98.0692 86.9189 98.2849 86.6944C98.5006 86.4698 98.5287 86.0709 98.3478 85.8033Z" fill="white" stroke="white" stroke-width="2.5"/>
<path opacity="0.27" d="M67.1646 348.382L22.1612 281.837C21.9802 281.569 21.6586 281.534 21.443 281.759C21.2273 281.983 21.1991 282.382 21.3801 282.65L66.3835 349.195C66.5645 349.462 66.8861 349.497 67.1018 349.273C67.3174 349.048 67.3456 348.649 67.1646 348.382Z" fill="white" stroke="white" stroke-width="2.5"/>
<path opacity="0.28" d="M72.4097 257.007L59.7388 238.271C59.5578 238.003 59.2363 237.968 59.0206 238.193C58.8049 238.417 58.7768 238.816 58.9578 239.084L71.6286 257.82C71.8096 258.088 72.1312 258.122 72.3469 257.898C72.5625 257.673 72.5907 257.274 72.4097 257.007Z" fill="white" stroke="white" stroke-width="2.5"/>
<path opacity="0.21" d="M219.23 263.552L151.506 163.412C151.325 163.144 151.004 163.109 150.788 163.334C150.572 163.558 150.544 163.957 150.725 164.225L218.449 264.365C218.63 264.633 218.951 264.668 219.167 264.443C219.383 264.219 219.411 263.82 219.23 263.552Z" fill="white" stroke="white" stroke-width="2.5"/>
<path opacity="0.42" d="M145.845 96.2905L116.134 52.358C115.953 52.0904 115.631 52.0555 115.416 52.2801C115.2 52.5046 115.172 52.9036 115.353 53.1712L145.064 97.1037C145.245 97.3713 145.566 97.4062 145.782 97.1817C145.998 96.9571 146.026 96.5581 145.845 96.2905Z" fill="white" stroke="white" stroke-width="2.5"/>
<path opacity="0.94" d="M309.527 239.703L260.373 167.02C260.192 166.752 259.87 166.718 259.654 166.942C259.439 167.167 259.411 167.566 259.592 167.833L308.746 240.516C308.927 240.783 309.248 240.818 309.464 240.594C309.68 240.369 309.708 239.97 309.527 239.703Z" fill="white" stroke="white" stroke-width="2.5"/>
<path opacity="0.47" d="M133.937 78.2207L103.571 33.3191C103.39 33.0515 103.068 33.0166 102.853 33.2411C102.637 33.4657 102.609 33.8647 102.79 34.1323L133.156 79.0339C133.337 79.3015 133.659 79.3364 133.874 79.1118C134.09 78.8873 134.118 78.4883 133.937 78.2207Z" fill="white" stroke="white" stroke-width="2.5"/>
<path opacity="0.47" d="M55.2332 79.3426L20.4976 27.9803C20.3166 27.7127 19.9951 27.6778 19.7794 27.9023C19.5637 28.1269 19.5356 28.5259 19.7166 28.7935L54.4522 80.1557C54.6332 80.4233 54.9547 80.4583 55.1704 80.2337C55.3861 80.0092 55.4142 79.6102 55.2332 79.3426Z" fill="white" stroke="white" stroke-width="2.5"/>
<path opacity="0.77" d="M259.736 128.529L207.523 51.3243C207.342 51.0567 207.02 51.0218 206.805 51.2464C206.589 51.4709 206.561 51.8699 206.742 52.1375L258.955 129.342C259.136 129.61 259.457 129.645 259.673 129.42C259.889 129.196 259.917 128.797 259.736 128.529Z" fill="white" stroke="white" stroke-width="2.5"/>
<path opacity="0.07" d="M113.836 351.611L74.731 293.788C74.55 293.52 74.2285 293.486 74.0128 293.71C73.7971 293.935 73.769 294.334 73.95 294.601L113.055 352.424C113.236 352.692 113.557 352.727 113.773 352.502C113.989 352.278 114.017 351.879 113.836 351.611Z" fill="white" stroke="white" stroke-width="2.5"/>
<path opacity="0.65" d="M69.423 152.967L42.3336 112.911C42.1526 112.643 41.831 112.609 41.6153 112.833C41.3996 113.058 41.3715 113.457 41.5525 113.724L68.6419 153.78C68.8229 154.048 69.1445 154.083 69.3601 153.858C69.5758 153.634 69.604 153.235 69.423 152.967Z" fill="white" stroke="white" stroke-width="2.5"/>
<path opacity="0.77" d="M227.705 356.651L213.724 335.977C213.543 335.709 213.221 335.675 213.005 335.899C212.79 336.124 212.762 336.523 212.943 336.79L226.924 357.464C227.105 357.732 227.427 357.767 227.642 357.542C227.858 357.318 227.886 356.919 227.705 356.651Z" fill="white" stroke="white" stroke-width="2.5"/>
<path opacity="0.8" d="M155.676 355.523L112.42 291.563C112.239 291.295 111.918 291.26 111.702 291.485C111.487 291.709 111.458 292.108 111.639 292.376L154.895 356.336C155.076 356.604 155.398 356.639 155.613 356.414C155.829 356.19 155.857 355.791 155.676 355.523Z" fill="white" stroke="white" stroke-width="2.5"/>
<path opacity="0.29" d="M269.166 328.923L194.014 217.8C193.833 217.532 193.512 217.498 193.296 217.722C193.08 217.947 193.052 218.346 193.233 218.613L268.384 329.737C268.565 330.004 268.887 330.039 269.103 329.815C269.318 329.59 269.347 329.191 269.166 328.923Z" fill="white" stroke="white" stroke-width="2.5"/>
<path opacity="0.94" d="M183.547 331.646L170.876 312.91C170.695 312.642 170.373 312.607 170.158 312.832C169.942 313.056 169.914 313.455 170.095 313.723L182.766 332.459C182.947 332.727 183.268 332.761 183.484 332.537C183.7 332.312 183.728 331.913 183.547 331.646Z" fill="white" stroke="white" stroke-width="2.5"/>
<path opacity="0.94" d="M101.466 213.64L36.8008 118.022C36.6199 117.754 36.2983 117.72 36.0826 117.944C35.8669 118.169 35.8388 118.568 36.0198 118.835L100.685 214.453C100.866 214.721 101.187 214.756 101.403 214.531C101.619 214.306 101.647 213.907 101.466 213.64Z" fill="white" stroke="white" stroke-width="2.5"/>
<path opacity="0.81" d="M190.355 80.7508L159.989 35.8492C159.808 35.5816 159.486 35.5467 159.271 35.7713C159.055 35.9958 159.027 36.3948 159.208 36.6624L189.574 81.564C189.755 81.8316 190.077 81.8665 190.292 81.642C190.508 81.4174 190.536 81.0184 190.355 80.7508Z" fill="white" stroke="white" stroke-width="2.5"/>
<path opacity="0.22" d="M278.964 215.773L243.354 163.118C243.173 162.851 242.852 162.816 242.636 163.04C242.42 163.265 242.392 163.664 242.573 163.932L278.182 216.586C278.363 216.854 278.685 216.888 278.901 216.664C279.116 216.439 279.145 216.04 278.964 215.773Z" fill="white" stroke="white" stroke-width="2.5"/>
<path opacity="0.93" d="M46.4463 120.343L32.6832 99.9924C32.5022 99.7248 32.1806 99.6898 31.9649 99.9144C31.7493 100.139 31.7211 100.538 31.9021 100.806L45.6653 121.157C45.8463 121.424 46.1678 121.459 46.3835 121.235C46.5992 121.01 46.6273 120.611 46.4463 120.343Z" fill="white" stroke="white" stroke-width="2.5"/>
<path opacity="0.38" d="M296.747 66.1611L279.27 40.3184C279.089 40.0508 278.768 40.0159 278.552 40.2405C278.336 40.465 278.308 40.864 278.489 41.1316L295.966 66.9743C296.147 67.2419 296.469 67.2768 296.684 67.0522C296.9 66.8277 296.928 66.4287 296.747 66.1611Z" fill="white" stroke="white" stroke-width="2.5"/>
<path opacity="0.21" d="M302.56 148.275L268.698 98.2052C268.517 97.9376 268.196 97.9027 267.98 98.1272C267.764 98.3518 267.736 98.7508 267.917 99.0184L301.779 149.088C301.96 149.356 302.282 149.391 302.497 149.166C302.713 148.942 302.741 148.543 302.56 148.275Z" fill="white" stroke="white" stroke-width="2.5"/>
<path opacity="0.31" d="M98.2628 257.565L56.3179 195.543C56.1369 195.275 55.8154 195.241 55.5997 195.465C55.384 195.69 55.3559 196.089 55.5369 196.356L97.4818 258.379C97.6628 258.646 97.9843 258.681 98.2 258.457C98.4157 258.232 98.4438 257.833 98.2628 257.565Z" fill="white" stroke="white" stroke-width="2.5"/>
<path opacity="0.36" d="M143.259 151.873L108.523 100.511C108.343 100.243 108.021 100.208 107.805 100.433C107.59 100.658 107.561 101.057 107.742 101.324L142.478 152.686C142.659 152.954 142.981 152.989 143.196 152.764C143.412 152.54 143.44 152.141 143.259 151.873Z" fill="white" stroke="white" stroke-width="2.5"/>
<path opacity="0.73" d="M115.402 101.629L81.3218 51.2361C81.1409 50.9685 80.8193 50.9336 80.6036 51.1582C80.3879 51.3827 80.3598 51.7817 80.5408 52.0493L114.621 102.442C114.802 102.71 115.124 102.745 115.339 102.52C115.555 102.296 115.583 101.897 115.402 101.629Z" fill="white" stroke="white" stroke-width="2.5"/>
<path opacity="0.51" d="M284.05 242.023L272.253 224.579C272.072 224.312 271.751 224.277 271.535 224.501C271.32 224.726 271.291 225.125 271.472 225.393L283.269 242.836C283.45 243.104 283.772 243.139 283.988 242.914C284.203 242.69 284.231 242.291 284.05 242.023Z" fill="white" stroke="white" stroke-width="2.5"/>
<path opacity="0.17" d="M140.697 68.4782L96.1309 2.57943C95.9499 2.31182 95.6284 2.27691 95.4127 2.50146C95.197 2.72602 95.1689 3.12499 95.3499 3.3926L139.916 69.2913C140.097 69.559 140.419 69.5939 140.635 69.3693C140.85 69.1448 140.878 68.7458 140.697 68.4782Z" fill="white" stroke="white" stroke-width="2.5"/>
<path opacity="0.91" d="M92.2186 330.373L66.44 292.255C66.259 291.987 65.9375 291.952 65.7218 292.177C65.5061 292.402 65.478 292.8 65.6589 293.068L91.4376 331.186C91.6186 331.454 91.9401 331.489 92.1558 331.264C92.3715 331.039 92.3996 330.64 92.2186 330.373Z" fill="white" stroke="white" stroke-width="2.5"/>
<path opacity="0.94" d="M130.708 159.106L85.0489 91.5918C84.8679 91.3242 84.5463 91.2893 84.3307 91.5138C84.115 91.7384 84.0868 92.1373 84.2678 92.405L129.927 159.919C130.108 160.186 130.429 160.221 130.645 159.997C130.861 159.772 130.889 159.373 130.708 159.106Z" fill="white" stroke="white" stroke-width="2.5"/>
<path opacity="0.74" d="M254.178 234.971L238.231 211.39C238.05 211.122 237.728 211.088 237.512 211.312C237.297 211.537 237.268 211.936 237.449 212.203L253.397 235.785C253.578 236.052 253.9 236.087 254.115 235.863C254.331 235.638 254.359 235.239 254.178 234.971Z" fill="white" stroke="white" stroke-width="2.5"/>
<path opacity="0.54" d="M205.211 298.192L157.368 227.447C157.187 227.18 156.865 227.145 156.65 227.369C156.434 227.594 156.406 227.993 156.587 228.261L204.43 299.005C204.611 299.272 204.933 299.307 205.148 299.083C205.364 298.858 205.392 298.459 205.211 298.192Z" fill="white" stroke="white" stroke-width="2.5"/>
<path opacity="0.56" d="M174.247 158.379L124.437 84.7277C124.256 84.4601 123.935 84.4252 123.719 84.6498C123.503 84.8743 123.475 85.2733 123.656 85.5409L173.466 159.192C173.647 159.46 173.968 159.495 174.184 159.27C174.4 159.046 174.428 158.647 174.247 158.379Z" fill="white" stroke="white" stroke-width="2.5"/>
<path opacity="0.4" d="M210.336 179.308L194.388 155.727C194.207 155.459 193.885 155.424 193.67 155.649C193.454 155.874 193.426 156.273 193.607 156.54L209.554 180.122C209.735 180.389 210.057 180.424 210.273 180.2C210.488 179.975 210.517 179.576 210.336 179.308Z" fill="white" stroke="white" stroke-width="2.5"/>
<path opacity="0.39" d="M175.377 95.5196L137.583 39.6349C137.402 39.3673 137.08 39.3324 136.864 39.5569C136.649 39.7815 136.621 40.1804 136.802 40.4481L174.596 96.3328C174.777 96.6004 175.098 96.6353 175.314 96.4107C175.53 96.1862 175.558 95.7872 175.377 95.5196Z" fill="white" stroke="white" stroke-width="2.5"/>
<path opacity="0.96" d="M117.102 240.176L95.2554 207.872C95.0744 207.605 94.7529 207.57 94.5372 207.795C94.3215 208.019 94.2934 208.418 94.4744 208.686L116.321 240.989C116.502 241.257 116.823 241.291 117.039 241.067C117.255 240.842 117.283 240.443 117.102 240.176Z" fill="white" stroke="white" stroke-width="2.5"/>
<path opacity="0.5" d="M292.912 322.44L282.425 306.935C282.244 306.667 281.923 306.632 281.707 306.857C281.491 307.081 281.463 307.48 281.644 307.748L292.131 323.253C292.311 323.521 292.633 323.556 292.849 323.331C293.064 323.107 293.093 322.708 292.912 322.44Z" fill="white" stroke="white" stroke-width="2.5"/>
<path opacity="0.86" d="M74.1459 36.3905L69.5582 29.6068C69.3772 29.3392 69.0556 29.3043 68.8399 29.5289C68.6243 29.7534 68.5961 30.1524 68.7771 30.42L73.3648 37.2037C73.5458 37.4713 73.8674 37.5062 74.0831 37.2817C74.2987 37.0571 74.3269 36.6581 74.1459 36.3905Z" fill="white" stroke="white" stroke-width="2.5"/>
<path opacity="0.28" d="M169.102 334.518L141.138 293.17C140.957 292.902 140.636 292.867 140.42 293.092C140.204 293.317 140.176 293.715 140.357 293.983L168.32 335.331C168.501 335.599 168.823 335.634 169.039 335.409C169.254 335.185 169.283 334.786 169.102 334.518Z" fill="white" stroke="white" stroke-width="2.5"/>
<path opacity="0.75" d="M40.9225 81.4502L16.4546 45.2705C16.2737 45.0029 15.9521 44.968 15.7364 45.1925C15.5207 45.4171 15.4926 45.816 15.6736 46.0836L40.1415 82.2633C40.3224 82.531 40.644 82.5659 40.8597 82.3413C41.0754 82.1168 41.1035 81.7178 40.9225 81.4502Z" fill="white" stroke="white" stroke-width="2.5"/>
<path opacity="0.55" d="M175.801 306.957L130.361 239.766C130.18 239.499 129.858 239.464 129.643 239.688C129.427 239.913 129.399 240.312 129.58 240.58L175.02 307.77C175.201 308.038 175.523 308.073 175.738 307.848C175.954 307.624 175.982 307.225 175.801 306.957Z" fill="white" stroke="white" stroke-width="2.5"/>
<path opacity="0.95" d="M135.213 359.127L124.727 343.622C124.546 343.354 124.224 343.319 124.008 343.544C123.793 343.768 123.765 344.167 123.946 344.435L134.432 359.94C134.613 360.208 134.934 360.243 135.15 360.018C135.366 359.794 135.394 359.395 135.213 359.127Z" fill="white" stroke="white" stroke-width="2.5"/>
<path opacity="0.76" d="M151.196 249.645L86.3121 153.704C86.1311 153.437 85.8095 153.402 85.5938 153.626C85.3782 153.851 85.35 154.25 85.531 154.517L150.415 250.458C150.596 250.726 150.917 250.761 151.133 250.536C151.348 250.312 151.377 249.913 151.196 249.645Z" fill="white" stroke="white" stroke-width="2.5"/>
<path opacity="0.1" d="M73.6936 336.038L2.03766 230.083C1.85667 229.816 1.53511 229.781 1.31943 230.005C1.10375 230.23 1.07561 230.629 1.25659 230.896L72.9125 336.851C73.0935 337.119 73.415 337.154 73.6307 336.929C73.8464 336.705 73.8745 336.306 73.6936 336.038Z" fill="white" stroke="white" stroke-width="2.5"/>
</g>
</svg>
