<svg width="104" height="104" viewBox="0 0 104 104" fill="none" xmlns="http://www.w3.org/2000/svg">
<g opacity="0.4">
<path d="M94.6955 18.8529H66.9914V5.92436C66.9914 2.86952 64.5055 0.383545 61.4506 0.383545H18.9711C15.9162 0.383545 13.4303 2.86952 13.4303 5.92436V18.8529H9.73639C4.64439 18.8529 0.501709 22.9956 0.501709 28.0876V94.5773C0.501709 99.6693 4.64439 103.812 9.73639 103.812H94.6955C99.7875 103.812 103.93 99.6693 103.93 94.5773V28.0876C103.93 22.9956 99.7857 18.8529 94.6955 18.8529ZM81.7669 22.5468V100.118H78.0731V22.5468H81.7669ZM17.1241 5.92436C17.1241 4.90669 17.9534 4.07742 18.9711 4.07742H61.4506C62.4683 4.07742 63.2976 4.90669 63.2976 5.92436V18.8529H17.1241V5.92436ZM4.19558 94.5773V28.0876C4.19558 25.0328 6.68156 22.5468 9.73639 22.5468H74.3792V100.118H9.73639C6.67971 100.118 4.19558 97.6322 4.19558 94.5773ZM100.236 94.5773C100.236 97.6322 97.7503 100.118 94.6955 100.118H85.4608V22.5468H94.6955C97.7503 22.5468 100.236 25.0328 100.236 28.0876V94.5773ZM15.2772 53.9447H63.2976C66.3524 53.9447 68.8384 51.4587 68.8384 48.4039V33.6284C68.8384 30.5736 66.3524 28.0876 63.2976 28.0876H15.2772C12.2224 28.0876 9.73639 30.5736 9.73639 33.6284V48.4039C9.73639 51.4587 12.2224 53.9447 15.2772 53.9447ZM13.4303 33.6284C13.4303 32.6107 14.2595 31.7815 15.2772 31.7815H63.2976C64.3152 31.7815 65.1445 32.6107 65.1445 33.6284V48.4039C65.1445 49.4216 64.3152 50.2508 63.2976 50.2508H15.2772C14.2595 50.2508 13.4303 49.4216 13.4303 48.4039V33.6284ZM22.665 59.4855H11.5833C10.5638 59.4855 9.73639 60.313 9.73639 61.3325V72.4141C9.73639 73.4336 10.5638 74.261 11.5833 74.261H22.665C23.6845 74.261 24.5119 73.4336 24.5119 72.4141V61.3325C24.5119 60.313 23.6845 59.4855 22.665 59.4855ZM20.818 70.5671H13.4303V63.1794H20.818V70.5671ZM44.8282 59.4855H33.7466C32.7271 59.4855 31.8996 60.313 31.8996 61.3325V72.4141C31.8996 73.4336 32.7271 74.261 33.7466 74.261H44.8282C45.8477 74.261 46.6751 73.4336 46.6751 72.4141V61.3325C46.6751 60.313 45.8477 59.4855 44.8282 59.4855ZM42.9813 70.5671H35.5935V63.1794H42.9813V70.5671ZM66.9914 59.4855H55.9098C54.8903 59.4855 54.0629 60.313 54.0629 61.3325V72.4141C54.0629 73.4336 54.8903 74.261 55.9098 74.261H66.9914C68.0109 74.261 68.8384 73.4336 68.8384 72.4141V61.3325C68.8384 60.313 68.0128 59.4855 66.9914 59.4855ZM65.1445 70.5671H57.7568V63.1794H65.1445V70.5671ZM22.665 79.8018H11.5833C10.5638 79.8018 9.73639 80.6293 9.73639 81.6488V92.7304C9.73639 93.7499 10.5638 94.5773 11.5833 94.5773H22.665C23.6845 94.5773 24.5119 93.7499 24.5119 92.7304V81.6488C24.5119 80.6293 23.6845 79.8018 22.665 79.8018ZM20.818 90.8835H13.4303V83.4957H20.818V90.8835ZM44.8282 79.8018H33.7466C32.7271 79.8018 31.8996 80.6293 31.8996 81.6488V92.7304C31.8996 93.7499 32.7271 94.5773 33.7466 94.5773H44.8282C45.8477 94.5773 46.6751 93.7499 46.6751 92.7304V81.6488C46.6751 80.6293 45.8477 79.8018 44.8282 79.8018ZM42.9813 90.8835H35.5935V83.4957H42.9813V90.8835ZM66.9914 79.8018H55.9098C54.8903 79.8018 54.0629 80.6293 54.0629 81.6488V92.7304C54.0629 93.7499 54.8903 94.5773 55.9098 94.5773H66.9914C68.0109 94.5773 68.8384 93.7499 68.8384 92.7304V81.6488C68.8384 80.6293 68.0128 79.8018 66.9914 79.8018ZM65.1445 90.8835H57.7568V83.4957H65.1445V90.8835ZM57.7568 11.4652C57.7568 12.4847 56.9293 13.3121 55.9098 13.3121H24.5119C23.4924 13.3121 22.665 12.4847 22.665 11.4652C22.665 10.4457 23.4924 9.61823 24.5119 9.61823H55.9098C56.9293 9.61823 57.7568 10.4457 57.7568 11.4652Z" fill="black"/>
</g>
</svg>
