<svg width="112" height="96" viewBox="0 0 112 96" fill="none" xmlns="http://www.w3.org/2000/svg">
<g style="mix-blend-mode:overlay">
<path d="M105.427 51.1067V34.4253C105.427 30.3105 102.902 26.7797 99.3218 25.2866L96.7059 8.29045C96.296 5.62904 94.8841 3.4211 92.7257 2.07059C90.5692 0.720087 87.9652 0.415134 85.391 1.21118L9.93087 24.5698C4.6833 24.8074 0.475342 29.1184 0.475342 34.4253V85.911C0.475342 91.3704 4.91697 95.812 10.3764 95.812H95.5257C100.985 95.812 105.427 91.3704 105.427 85.911V69.2296C108.918 67.6969 111.367 64.2177 111.367 60.1681C111.367 56.1186 108.918 52.6394 105.427 51.1067ZM86.5632 4.99537C88.0167 4.54586 89.4603 4.70032 90.6267 5.42904C91.793 6.15974 92.5633 7.38946 92.793 8.89244L95.199 24.5262H23.4696L86.5632 4.99537ZM101.466 85.911C101.466 89.1862 98.801 91.8516 95.5257 91.8516H10.3764C7.10114 91.8516 4.43577 89.1862 4.43577 85.911V34.4253C4.43577 31.152 7.09916 28.4867 10.3725 28.4847C10.3744 28.4847 10.3784 28.4847 10.3804 28.4847H95.5257C98.801 28.4847 101.466 31.1501 101.466 34.4253V50.2671H77.7018C72.2423 50.2671 67.8007 54.7087 67.8007 60.1681C67.8007 65.6276 72.2423 70.0692 77.7018 70.0692H101.466V85.911ZM101.466 66.1088H77.7018C74.4265 66.1088 71.7611 63.4434 71.7611 60.1681C71.7611 56.8929 74.4265 54.2275 77.7018 54.2275H101.466C104.742 54.2275 107.407 56.8929 107.407 60.1681C107.407 63.4434 104.742 66.1088 101.466 66.1088ZM32.1588 54.2275C32.1588 56.4117 33.9351 58.1879 36.1192 58.1879C40.4876 58.1879 44.0401 61.7404 44.0401 66.1088C44.0401 69.788 41.5054 72.8633 38.0994 73.7485V76.0099C38.0994 77.103 37.2123 77.9901 36.1192 77.9901C35.0261 77.9901 34.139 77.103 34.139 76.0099V73.7485C30.733 72.8633 28.1984 69.788 28.1984 66.1088C28.1984 65.0157 29.0855 64.1286 30.1786 64.1286C31.2717 64.1286 32.1588 65.0157 32.1588 66.1088C32.1588 68.293 33.9351 70.0692 36.1192 70.0692C38.3034 70.0692 40.0797 68.293 40.0797 66.1088C40.0797 63.9246 38.3034 62.1484 36.1192 62.1484C31.7509 62.1484 28.1984 58.5959 28.1984 54.2275C28.1984 50.5483 30.733 47.473 34.139 46.5878V44.3264C34.139 43.2333 35.0261 42.3462 36.1192 42.3462C37.2123 42.3462 38.0994 43.2333 38.0994 44.3264V46.5878C41.5054 47.473 44.0401 50.5483 44.0401 54.2275C44.0401 55.3206 43.153 56.2077 42.0599 56.2077C40.9668 56.2077 40.0797 55.3206 40.0797 54.2275C40.0797 52.0433 38.3034 50.2671 36.1192 50.2671C33.9351 50.2671 32.1588 52.0433 32.1588 54.2275ZM36.1192 34.4253C21.925 34.4253 10.3764 45.974 10.3764 60.1681C10.3764 74.3623 21.925 85.911 36.1192 85.911C50.3134 85.911 61.862 74.3623 61.862 60.1681C61.862 45.974 50.3134 34.4253 36.1192 34.4253ZM36.1192 81.9505C24.1092 81.9505 14.3369 72.1782 14.3369 60.1681C14.3369 48.1581 24.1092 38.3858 36.1192 38.3858C48.1292 38.3858 57.9016 48.1581 57.9016 60.1681C57.9016 72.1782 48.1292 81.9505 36.1192 81.9505Z" fill="black"/>
</g>
</svg>
